HIERARCHY
ROOT Pelvis
{
	OFFSET 0.000000 0.000000 0.000000
	CHANNELS 6 Xposition Yposition Zposition Xrotation Yrotation Zrotation
	JOINT LeftUpLeg_virtual
	{
		OFFSET 0.000000 0.000000 0.000000
		CHANNELS 3 Xrotation Yrotation Zrotation
		JOINT LeftUpLeg
		{
			OFFSET 18.735201 -5.666702 -4.541200
			CHANNELS 3 Xrotation Yrotation Zrotation
			JOINT LeftLeg
			{
				OFFSET -0.021200 -31.938179 0.493100
				CHANNELS 3 Xrotation Yrotation Zrotation
				JOINT LeftFoot
				{
					OFFSET 0.021200 -31.938179 -4.336299
					CHANNELS 3 Xrotation Yrotation Zrotation
					JOINT LeftToeBase
					{
						OFFSET 0.943001 -26.722000 15.023500
						CHANNELS 3 Xrotation Yrotation Zrotation
						End Site
						{
							OFFSET 0 0 0
						}
					}
				}
			}
		}
	}
	JOINT RightUpLeg_virtual
	{
		OFFSET 0.000000 0.000000 0.000000
		CHANNELS 3 Xrotation Yrotation Zrotation
		JOINT RightUpLeg
		{
			OFFSET -18.735201 -5.666702 -4.541200
			CHANNELS 3 Xrotation Yrotation Zrotation
			JOINT RightLeg
			{
				OFFSET 0.018946 -31.938133 0.493100
				CHANNELS 3 Xrotation Yrotation Zrotation
				JOINT RightFoot
				{
					OFFSET -0.018946 -31.938126 -4.336299
					CHANNELS 3 Xrotation Yrotation Zrotation
					JOINT RightToeBase
					{
						OFFSET -0.943001 -26.722004 15.023500
						CHANNELS 3 Xrotation Yrotation Zrotation
						End Site
						{
							OFFSET 0 0 0
						}
					}
				}
			}
		}
	}
	JOINT Hips_virtual
	{
		OFFSET 0.000000 0.000000 0.000000
		CHANNELS 3 Xrotation Yrotation Zrotation
		JOINT Hips
		{
			OFFSET -0.000000 -0.000000 -0.000000
			CHANNELS 3 Xrotation Yrotation Zrotation
			JOINT Spine
			{
				OFFSET 0.000000 10.199997 -0.299500
				CHANNELS 3 Xrotation Yrotation Zrotation
				JOINT Spine1
				{
					OFFSET 0.000000 11.900002 -1.516600
					CHANNELS 3 Xrotation Yrotation Zrotation
					JOINT Spine2
					{
						OFFSET 0.000000 13.600006 -2.842500
						CHANNELS 3 Xrotation Yrotation Zrotation
						JOINT Neck_virtual
						{
							OFFSET 0.000000 0.000000 0.000000
							CHANNELS 3 Xrotation Yrotation Zrotation
							JOINT Neck
							{
								OFFSET 0.000000 9.624100 -2.890100
								CHANNELS 3 Xrotation Yrotation Zrotation
								JOINT Head
								{
									OFFSET 0.000000 14.068802 -1.351900
									CHANNELS 3 Xrotation Yrotation Zrotation
									End Site
									{
										OFFSET 0 0 0
									}
								}
							}
						}
						JOINT LeftShoulder_virtual
						{
							OFFSET 0.000000 0.000000 0.000000
							CHANNELS 3 Xrotation Yrotation Zrotation
							JOINT LeftShoulder
							{
								OFFSET 15.263000 10.923401 -0.547700
								CHANNELS 3 Xrotation Yrotation Zrotation
								JOINT LeftArm
								{
									OFFSET 25.438599 -2.830597 -13.032500
									CHANNELS 3 Xrotation Yrotation Zrotation
									JOINT LeftForeArm
									{
										OFFSET 29.960503 0.000000 0.000000
										CHANNELS 3 Xrotation Yrotation Zrotation
										JOINT LeftHand
										{
											OFFSET 27.849251 0.000000 0.000000
											CHANNELS 3 Xrotation Yrotation Zrotation
											End Site
											{
												OFFSET 0 0 0
											}
										}
									}
								}
							}
						}
						JOINT RightShoulder_virtual
						{
							OFFSET 0.000000 0.000000 0.000000
							CHANNELS 3 Xrotation Yrotation Zrotation
							JOINT RightShoulder
							{
								OFFSET -15.263000 10.923401 -0.547700
								CHANNELS 3 Xrotation Yrotation Zrotation
								JOINT RightArm
								{
									OFFSET -25.438599 -2.830597 -13.032500
									CHANNELS 3 Xrotation Yrotation Zrotation
									JOINT RightForeArm
									{
										OFFSET -29.960503 0.000000 0.000000
										CHANNELS 3 Xrotation Yrotation Zrotation
										JOINT RightHand
										{
											OFFSET -27.849251 0.000000 0.000000
											CHANNELS 3 Xrotation Yrotation Zrotation
											End Site
											{
												OFFSET 0 0 0
											}
										}
									}
								}
							}
						}
					}
				}
			}
		}
	}
}
MOTION
Frames: 4
Frame Time: 0.03333333
1.368728 94.614517 1.584269 0.000000 0.000000 0.000000 11.185518 -2.945417 -2.163819 -25.786700 11.707865 13.734874 34.147005 -3.044032 -0.434336 -13.843553 -2.748952 -7.616559 0.000000 0.000000 0.000000 6.520976 7.990817 4.011225 -20.098247 -3.730167 -9.189368 27.558365 1.687488 -3.043814 -19.693423 -0.872590 6.800307 0.000000 0.000000 0.000000 -0.057490 0.273598 0.515165 0.533533 8.743508 -0.776837 6.058499 0.116706 1.171124 1.805161 0.089269 0.403824 0.000000 0.000000 0.000000 0.484150 -0.187582 -0.126908 -1.604771 -0.282140 -0.152850 0.000000 0.000000 0.000000 0.701242 0.021758 -0.352933 -0.778610 -6.779800 -7.757193 2.558941 -1.978928 -57.756954 2.948725 -33.626821 -5.805214 0.000000 0.000000 0.000000 1.411850 -0.386946 0.068853 -0.333925 6.238003 5.850161 12.073717 7.201656 52.456731 8.227812 38.043331 2.340002 0.000000 0.000000 0.000000 
1.813434 94.520752 1.117964 0.000000 0.000000 0.000000 11.184106 -3.569693 -2.249778 -25.834992 11.609279 13.577907 32.408097 -3.669872 -0.528293 -15.226160 -3.256836 -8.141310 0.000000 0.000000 0.000000 6.458420 6.789721 4.370300 -20.241850 -4.150144 -8.921501 28.053134 1.736476 -3.606986 -19.343074 -0.462370 5.829079 0.000000 0.000000 0.000000 -0.865989 -1.168092 -0.147026 3.825886 8.251984 -0.856161 7.040142 -0.366553 1.207450 2.403821 0.113085 0.773332 0.000000 0.000000 0.000000 0.504557 -0.140180 -0.369073 -1.563828 -0.198287 -0.227488 0.000000 0.000000 0.000000 0.159328 -0.116108 -0.309971 -0.285972 -6.575136 -8.210201 4.779851 -0.261863 -59.276732 4.101269 -30.628371 -6.092259 0.000000 0.000000 0.000000 1.134210 -0.219521 -0.151795 -0.206777 6.943067 5.586162 13.933108 9.470225 51.871202 9.076995 40.711606 1.882598 0.000000 0.000000 0.000000 
1.794605 93.918434 2.059938 0.000000 0.000000 0.000000 11.385690 -2.740464 -2.200472 -25.307897 11.808081 13.619485 31.131213 -3.396326 -0.446555 -16.056016 -2.975983 -7.848500 0.000000 0.000000 0.000000 6.057009 6.558751 4.452780 -20.740105 -4.147226 -8.874449 28.388327 1.664395 -3.993271 -19.047294 -0.269227 5.080036 0.000000 0.000000 0.000000 0.067810 -0.420180 0.566741 1.292646 10.895226 -1.836847 8.284759 -0.652264 0.458222 2.091137 -0.027516 0.887824 0.000000 0.000000 0.000000 0.548264 -0.341385 -0.347073 -1.606331 -0.327364 -0.272148 0.000000 0.000000 0.000000 -0.195812 0.028339 -0.166850 -0.438886 -7.968793 -8.539332 4.762698 0.167514 -59.740543 4.403725 -28.744609 -6.203810 0.000000 0.000000 0.000000 0.964010 -0.201960 -0.332496 0.110083 6.252633 4.936956 15.155946 8.486272 52.756077 8.930109 36.953912 2.204202 0.000000 0.000000 0.000000 
1.872865 94.318184 2.534916 0.000000 0.000000 0.000000 11.464251 -4.086934 -2.763657 -25.209144 11.702852 12.828519 30.856100 -3.065836 -0.295807 -16.474584 -2.675292 -7.438506 0.000000 0.000000 0.000000 6.194136 6.944631 4.867656 -20.410383 -4.147770 -8.317548 29.285481 1.568429 -4.372989 -18.419716 -0.105669 4.403716 0.000000 0.000000 0.000000 -0.891552 0.448540 0.062712 2.490516 11.017470 -1.596630 8.009644 -1.161685 1.192232 2.648597 0.141789 0.699082 0.000000 0.000000 0.000000 0.203449 -0.424552 -0.315198 -1.730862 -0.390872 -0.281390 0.000000 0.000000 0.000000 0.057122 -0.220845 -0.286188 -0.573772 -7.436946 -8.367777 5.866566 0.380387 -60.550542 4.528317 -28.043667 -6.627090 0.000000 0.000000 0.000000 0.491730 -0.026912 -0.362004 -0.677701 6.639175 5.897114 14.939456 8.029528 53.399607 8.974633 37.427193 2.543844 0.000000 0.000000 0.000000 
